<svg width="3832" height="1642" viewBox="0 0 3832 1642" fill="none" xmlns="http://www.w3.org/2000/svg">
<path d="M1999.91 0C2014.39 5.47723 2014.97 7.99964 2008.05 22.7017C2003.23 33.0075 1999.63 43.8899 1995.66 54.5561C1995.09 56.1416 1994.73 58.1596 1995.23 59.673C1999.63 73.5102 1993 83.2395 1984.07 92.7526C1979.67 97.5091 1976.07 103.491 1973.84 109.545C1961.23 144.57 1944.52 177.578 1924.71 209C1919.6 217.143 1913.33 224.567 1905.91 234.512C1925.43 238.836 1942.15 243.449 1959.14 245.971C1969.16 247.412 1979.82 244.241 1989.97 245.25C2013.67 247.556 2037.3 250.8 2060.78 254.547C2068.56 255.772 2076.55 258.511 2083.4 262.475C2116.67 281.717 2146.28 305.644 2166.88 338.363C2175.31 351.696 2178.98 367.911 2185.1 382.758C2188.2 390.325 2191.95 397.676 2195.26 405.099C2201.53 419.224 2207.94 433.35 2213.7 447.692C2214.2 449.061 2210.6 453.818 2208.44 454.178C2186.11 458.142 2163.71 461.961 2141.24 464.772C2133.46 465.781 2125.1 464.772 2117.39 463.114C2086.64 456.268 2055.02 451.8 2027.36 434.935C2019.79 430.323 2012.3 425.494 2002.87 419.585C2004.45 423.044 2005.03 424.99 2006.11 426.503C2022.31 449.349 2031.17 475.582 2039.6 501.815C2044.79 517.815 2042.05 534.39 2036.58 549.309C2027 575.037 2021.88 602.64 2006.83 626.206C2000.2 636.584 1993.65 647.106 1986.23 656.98C1984.07 659.862 1978.95 662.024 1975.35 661.88C1973.26 661.808 1969.95 656.691 1969.59 653.52C1968.36 643.575 1968.08 633.557 1967.72 623.54C1967 604.658 1966.49 585.704 1965.84 566.821C1965.84 564.804 1965.2 562.786 1965.41 560.768C1969.59 525.958 1948.84 502.968 1926.95 480.843C1918.95 472.772 1909.59 465.997 1899.58 457.637C1899.07 462.754 1897.78 467.439 1898.35 471.835C1905.77 523.724 1882.65 563.362 1845.7 595.433C1817.61 619.792 1792.97 646.818 1770.86 676.366C1764.95 684.294 1761.28 693.879 1756.38 702.599C1754.94 705.194 1752.92 708.941 1750.83 709.157C1748.53 709.374 1745.22 706.635 1743.49 704.401C1733.19 690.996 1727.21 675.79 1727.71 658.853C1728.43 635.935 1721.88 615.036 1711.15 595.433C1705.02 584.19 1702.65 573.091 1705.38 560.696C1708.55 546.066 1712.23 531.58 1714.46 516.806C1716.04 506.5 1715.68 495.834 1716.12 487.041C1701.06 483.582 1688.17 480.339 1675.13 477.672C1671.31 476.88 1667.13 477.384 1663.17 477.888C1651.22 479.33 1648.48 477.744 1645.67 465.781C1641.56 448.773 1638.32 431.548 1633.64 414.684C1629.54 399.838 1623.12 385.568 1619.38 370.65C1617.43 362.939 1617.65 354.002 1619.38 346.147C1624.71 322.724 1636.38 301.824 1647.47 280.636C1661.52 253.899 1682.55 236.89 1708.77 222.693C1737.51 207.126 1768.05 202.441 1799.09 200.279C1814.87 199.198 1831.58 204.099 1847.21 208.495C1873.64 215.846 1886.11 212.387 1901.38 189.325C1910.6 175.416 1919.6 161.362 1927.74 146.876C1931.49 140.246 1932.57 132.174 1935.66 125.112C1939.26 116.824 1944.02 109.04 1947.84 100.824C1952.66 90.5185 1956.91 79.9243 1961.67 69.5464C1966.28 59.3847 1971.68 49.5113 1975.71 39.2055C1977.66 34.2327 1978.81 28.1068 1977.8 22.99C1976 14.2696 1976 6.63033 1982.48 0H1999.77L1999.91 0ZM1868.53 556.66C1875.66 553.705 1870.26 548.516 1870.33 544.552C1870.55 531.436 1870.04 518.247 1869.9 505.131C1869.9 503.113 1869.9 501.095 1869.9 499.077C1871.2 499.077 1872.42 498.933 1873.72 498.861C1874.8 513.563 1875.81 528.265 1876.89 543.399C1887.4 526.895 1879.48 508.302 1881.64 491.005C1882.58 491.005 1883.51 491.005 1884.45 490.933C1885.24 499.87 1885.96 508.806 1886.75 517.815C1887.62 517.815 1888.48 517.959 1889.35 518.031C1890.14 509.455 1891.36 500.951 1891.58 492.374C1891.8 481.492 1888.12 469.456 1891.65 460.015C1896.41 447.331 1893.89 436.809 1890.86 425.206C1888.77 417.134 1887.47 408.919 1885.75 400.775C1885.17 397.964 1884.31 395.226 1883.51 392.487C1870.48 409.423 1858.16 425.494 1845.48 441.998C1851.17 457.349 1853.19 474.501 1852.61 492.23C1852.32 501.023 1853.69 509.815 1854.41 518.679C1854.99 525.526 1856.57 532.373 1856.29 539.075C1855.64 552.119 1853.91 565.164 1852.47 580.226C1858.37 571.578 1863.63 564.011 1868.82 556.371L1868.53 556.66ZM1757.75 476.663C1758.47 477.744 1759.19 478.753 1759.91 479.834C1765.24 477.744 1770.64 475.871 1775.83 473.42C1779.93 471.474 1783.39 467.943 1787.64 466.43C1821.5 454.106 1846.35 430.755 1866.3 401.784C1880.92 380.596 1892.01 357.389 1897.77 332.309C1904.98 301.176 1897.56 270.546 1890.64 240.278C1888.77 231.99 1884.45 223.341 1875.01 221.323C1857.44 217.504 1839.29 215.918 1821.93 211.306C1793.48 203.811 1766.03 210.657 1739.89 218.729C1718.85 225.215 1700.05 238.836 1680.46 249.646C1677.07 251.52 1673.98 254.691 1671.96 258.006C1656.62 282.942 1640.99 307.59 1630.69 335.408C1622.91 356.453 1627.45 375.118 1634.72 394.577C1639.84 408.198 1644.23 422.179 1648.19 436.161C1651.29 447.115 1653.09 458.358 1655.32 468.592C1665.77 469.384 1675.71 468.087 1683.77 471.33C1696.16 476.375 1706.46 474.934 1717.2 468.303C1723.03 464.7 1729.22 461.529 1735.28 458.286C1736.79 457.493 1738.59 457.277 1740.25 456.844C1740.68 457.637 1741.11 458.43 1741.47 459.295C1732.97 464.412 1724.47 469.456 1715.54 474.79C1730.95 482.645 1740.53 467.439 1753.07 465.204L1754.08 467.439C1749.39 470.61 1744.71 473.708 1740.1 476.88C1740.61 477.816 1741.11 478.753 1741.61 479.762C1749.25 476.519 1756.88 473.276 1764.52 470.105C1765.17 470.97 1765.74 471.835 1766.39 472.7L1757.89 476.663H1757.75ZM1980.47 648.115C1981.11 648.475 1981.83 648.764 1982.48 649.124C1987.09 642.278 1991.85 635.503 1996.24 628.584C2012.66 602.784 2019.72 573.164 2029.09 544.696C2032.98 532.877 2034.92 518.319 2031.75 506.644C2025.99 485.24 2015.9 464.916 2007.48 444.232C2003.73 435.08 1999.55 426.071 1995.45 417.134C1994.8 415.693 1993.58 414.18 1992.28 413.243C1977.8 403.081 1966.35 390.397 1955.26 376.488C1938.62 355.588 1924.35 333.607 1913.12 309.536C1912.11 307.446 1910.67 305.572 1908.94 302.761C1906.99 322.724 1905.19 341.318 1903.54 359.912C1903.39 361.497 1904.11 363.299 1904.91 364.74C1915.64 383.911 1922.63 404.522 1926.23 426.143C1927.81 435.656 1931.12 443.656 1937.61 450.646C1942.94 456.34 1948.05 462.105 1953.09 468.087C1970.89 489.059 1985 512.265 1987.88 540.084C1991.34 573.812 1991.56 607.684 1981.91 640.836C1981.19 643.286 1980.83 645.809 1980.32 648.259L1980.47 648.115ZM1847.14 583.686C1845.48 579.361 1843.03 576.335 1843.61 574.1C1848.36 553.993 1850.38 533.958 1844.69 513.635C1843.46 509.31 1843.82 504.554 1843.68 499.942C1843.18 485.6 1842.89 471.258 1842.02 456.989C1841.81 453.457 1839.65 450.07 1838.28 446.394C1831 451.728 1824.81 455.907 1819.05 460.664C1817.03 462.322 1815.44 464.916 1814.58 467.439C1808.89 483.005 1803.13 498.644 1798.09 514.427C1796.64 518.896 1796.28 524.661 1797.87 528.841C1801.69 538.931 1802.34 548.588 1800.46 559.254C1798.73 569.056 1799.17 579.217 1798.3 589.235C1797.08 602.279 1795.64 615.324 1793.91 628.296C1793.69 630.026 1790.95 631.395 1789.37 632.909C1788.65 632.404 1787.93 631.972 1787.28 631.467C1787.71 628.44 1788.22 625.486 1788.58 622.459C1789.8 613.09 1791.39 603.793 1792.18 594.352C1793.26 580.659 1794.05 566.966 1794.48 553.272C1794.7 546.066 1793.69 538.787 1793.26 531.508C1791.96 531.508 1790.67 531.436 1789.37 531.364C1787.5 538.138 1784.83 544.84 1783.9 551.687C1781.59 568.839 1778.71 585.343 1768.77 600.55C1763.8 608.261 1762.65 618.855 1761.21 628.296C1759.77 637.881 1760.49 647.827 1759.41 657.556C1758.47 666.06 1756.38 674.42 1754.58 683.933C1759.48 677.375 1764.88 672.33 1767.33 666.132C1769.71 660.223 1768.99 653.016 1769.63 646.385C1770.07 646.385 1770.57 646.313 1771 646.241C1772.08 649.701 1773.09 653.16 1774.39 657.34C1784.62 645.376 1794.34 634.422 1803.42 622.891C1806.37 619.143 1807.74 614.099 1809.75 609.558C1811.92 604.802 1814.08 600.045 1816.24 595.289C1817.1 595.577 1817.97 595.937 1818.76 596.226C1818.54 599.829 1818.33 603.432 1818.11 607.036C1818.54 607.036 1818.97 607.18 1819.41 607.252C1821.21 599.973 1823.01 592.694 1824.74 585.415C1825.74 585.631 1826.75 585.92 1827.76 586.136C1826.9 590.892 1826.11 595.721 1824.88 602.568C1833.88 594.784 1841.16 588.442 1846.99 583.469L1847.14 583.686ZM1992.42 308.743C1999.99 316.238 2007.19 323.589 2014.68 330.58C2028.94 343.985 2046.66 351.264 2065.32 354.651C2076.27 356.597 2088.22 354.507 2099.6 353.065C2118.84 350.615 2137.85 347.66 2155.93 358.038C2158.67 359.624 2162.27 359.624 2167.53 360.849C2165.08 354.218 2164.5 348.597 2161.48 344.921C2147.86 328.634 2133.89 312.635 2119.34 297.284C2116.1 293.897 2109.62 291.807 2104.72 291.951C2077.78 292.672 2050.77 293.825 2023.9 295.626C2012.66 296.419 2002 300.167 1992.57 308.671L1992.42 308.743ZM2076.48 444.809C2062.72 418.216 2050.55 391.262 2056.67 359.479C2029.01 353.137 2008.2 337.426 1991.56 315.95C1984.21 321.283 1984.57 327.841 1984.72 334.472C1984.86 347.876 1984.72 361.353 1984.79 374.758C1984.79 378.433 1984.79 382.469 1986.3 385.64C1992.85 399.406 2000.13 412.594 2017.56 417.062C2013.82 411.513 2010.36 406.396 2006.9 401.279C2007.62 400.703 2008.34 400.126 2009.06 399.55C2017.92 405.676 2021.38 416.702 2028.58 424.053C2026.71 418.648 2024.76 413.243 2022.89 407.766L2024.55 407.405C2030.67 416.342 2036.72 425.35 2042.84 434.287C2043.56 433.854 2044.36 433.35 2045.08 432.918C2042.77 428.161 2040.54 423.477 2038.23 418.72C2039.1 417.999 2039.89 417.279 2040.75 416.558C2049.04 430.683 2056.46 445.818 2076.55 444.737L2076.48 444.809ZM1741.33 687.825C1742.19 687.681 1742.98 687.609 1743.85 687.465C1750.19 669.52 1753.5 650.998 1752.71 631.9C1752.06 616.693 1756.16 603 1764.74 590.46C1767.33 586.712 1770.07 582.605 1771 578.28C1774.46 561.993 1777.2 545.489 1780.51 527.832C1758.54 544.48 1732.47 555.218 1719.93 581.812C1717.84 586.208 1717.7 589.163 1719.93 593.487C1730.09 614.027 1736.79 635.287 1736.21 658.781C1736 668.439 1739.6 678.168 1741.47 687.825H1741.33ZM1807.74 470.321C1806.73 469.456 1805.72 468.592 1804.71 467.727C1797.58 471.258 1789.95 474.069 1783.46 478.609C1774.53 484.879 1765.17 488.05 1754.44 487.402C1744.42 486.825 1734.41 486.393 1723.39 485.816C1723.68 491.654 1723.89 497.131 1724.18 503.113C1731.39 502.68 1737.58 502.248 1743.77 501.887C1743.85 502.824 1743.92 503.761 1744.06 504.698C1739.74 505.491 1735.42 506.428 1731.1 506.932C1725.48 507.581 1722.81 510.103 1724.18 516.878C1727.28 516.373 1730.31 515.797 1733.33 515.508C1736.14 515.22 1738.95 515.148 1741.76 515.004C1740.82 517.454 1739.6 518.535 1738.52 518.463C1721.01 517.887 1718.2 529.922 1716.76 543.399C1716.26 548.228 1715.11 553.056 1714.53 557.885C1713.74 564.155 1713.09 570.497 1712.37 576.839C1719.36 569.632 1723.53 560.696 1730.45 555.507C1747.38 542.823 1765.67 531.868 1783.39 520.193C1785.05 519.112 1787.21 518.103 1787.93 516.517C1794.77 501.167 1801.25 485.744 1807.88 470.321H1807.74ZM1951.51 286.402C1956.19 290.077 1959.43 293.536 1963.39 295.554C1974.56 301.104 1985.58 309.392 1997.97 296.852C2001.28 293.464 2007.19 291.735 2012.16 291.158C2029.52 289.068 2046.95 287.699 2064.38 286.257C2075.47 285.393 2086.64 285.032 2097.73 284.384C2097.73 283.447 2097.73 282.51 2097.73 281.573C2073.96 263.772 2048.1 255.628 2017.63 260.961C1994.15 265.069 1973.41 274.51 1951.44 286.402H1951.51ZM1977.51 622.891C1977.51 622.891 1978.16 623.179 1978.45 623.323C1979.24 615.18 1980.32 607.108 1980.75 598.892C1981.19 589.739 1981.47 580.515 1981.04 571.362C1980.39 557.957 1980.47 544.264 1977.8 531.219C1971.75 501.671 1952.66 479.546 1933.36 457.637C1927.16 450.574 1922.19 441.638 1919.1 432.773C1913.91 417.711 1911.03 401.784 1906.35 386.433C1904.11 379.226 1899.94 372.668 1896.62 365.821L1894.03 366.038C1892.44 371.947 1888.77 378.145 1889.71 383.622C1892.59 400.27 1897.49 416.558 1901.09 433.062C1904.47 448.484 1912.69 459.943 1925.65 469.096C1945.46 483.005 1958.28 502.824 1968.94 524.013C1971.61 529.274 1973.26 535.472 1973.62 541.309C1975.21 568.479 1976.14 595.649 1977.37 622.819L1977.51 622.891ZM1890.64 212.603C1891.22 213.684 1891.8 214.765 1892.44 215.846C1895.76 213.54 1899.07 211.378 1902.24 208.928C1904.83 206.91 1906.85 203.883 1909.73 202.513C1919.89 197.757 1926.73 188.604 1931.56 180.028C1943.59 158.912 1952.45 135.994 1963.32 114.229C1969.01 102.77 1976.5 92.2481 1982.77 81.0774C1985.15 76.8254 1987.88 71.7085 1987.45 67.2402C1986.01 51.6013 1989.83 37.6199 1997.61 24.3593C2000.06 20.1793 2002 15.7831 2005.24 9.51309C1997.68 9.51309 1991.92 9.51309 1986.16 9.51309C1986.37 14.1976 1985.65 19.0982 1987.02 23.4224C1989.54 31.6382 1985.94 37.9082 1982.48 44.6106C1977.87 53.4751 1973.55 62.5558 1969.52 71.7085C1964.69 82.663 1960.44 93.9778 1955.47 104.86C1951.44 113.869 1946.47 122.445 1942.43 131.454C1939.84 137.147 1939.34 144.21 1935.73 149.038C1920.03 169.794 1912.11 196.027 1890.57 212.675L1890.64 212.603ZM2126.47 456.844C2126.9 456.124 2127.26 455.475 2127.7 454.754C2116.46 438.179 2107.96 420.522 2104.72 400.703C2104.43 399.045 2102.56 397.46 2101.12 396.307C2088.8 386.217 2076.34 376.199 2063.95 366.182C2063.66 365.966 2062.94 366.326 2062.36 366.47C2058.98 395.874 2070.94 420.738 2085.49 444.881C2086.35 446.25 2087.72 447.908 2089.16 448.268C2101.62 451.295 2114.08 454.106 2126.61 456.916L2126.47 456.844ZM1978.52 393.208C1980.39 365.461 1975.64 338.579 1982.12 312.13C1971.1 306.509 1959.07 300.311 1945.39 293.32C1945.39 303.122 1946.76 312.923 1945.1 322.22C1941.64 341.03 1947.91 355.66 1960.3 369.137C1967 376.416 1972.33 384.92 1978.52 393.28V393.208ZM2174.8 377.425C2174.66 371.731 2171.99 368.416 2165.22 367.407C2158.74 366.47 2152.62 363.731 2146.28 361.858C2140.8 360.2 2135.26 356.885 2129.93 357.173C2110.62 358.254 2091.32 360.56 2071.73 362.362C2080.52 377.641 2096.87 383.262 2109.33 393.568C2110.05 394.145 2111.56 394.145 2112.57 393.928C2133.03 388.523 2153.41 383.118 2174.8 377.425ZM2176.89 385.208C2156.36 389.532 2136.99 393.568 2117.61 397.604C2117.61 398.469 2117.61 399.406 2117.61 400.27C2142.39 418.72 2171.13 428.882 2201.89 440.773C2196.77 428.521 2192.52 418.504 2188.42 408.774C2172.86 411.225 2163.88 411.273 2161.48 408.919C2168.82 407.693 2175.88 406.54 2183.73 405.171C2182.44 402.577 2181.5 399.694 2181 399.838C2171.49 401.279 2162.13 403.009 2152.69 404.739C2152.4 403.802 2152.11 402.793 2151.83 401.856C2160.76 399.406 2169.76 396.883 2178.91 394.361C2178.4 392.343 2177.83 389.604 2176.82 385.28L2176.89 385.208ZM2194.61 446.899C2167.74 434.215 2140.59 421.459 2113.36 408.558C2114.15 411.729 2114.51 415.909 2116.24 419.369C2121.21 429.386 2127.12 438.899 2131.94 448.989C2134.9 455.187 2139 457.493 2145.49 456.268C2162.05 453.097 2178.62 449.926 2194.61 446.899ZM1901.23 241.647C1915.21 253.466 1928.46 264.132 1940.99 275.519C1945.67 279.771 1948.7 280.06 1954.39 277.393C1970.89 269.682 1985.8 257.934 2005.1 255.989C1997.03 254.259 1988.82 252.745 1980.83 253.466C1960.01 255.412 1939.77 255.052 1920.25 245.755C1914.63 243.088 1907.79 242.944 1901.23 241.575V241.647ZM1936.74 334.976C1934.44 322.076 1926.95 310.184 1929.97 296.275L1937.25 319.986C1938.4 314.076 1936.89 308.094 1938.69 303.41C1944.23 288.924 1937.97 279.699 1927.24 271.483C1922.7 268.024 1918.95 263.484 1914.41 260.024C1910.96 257.43 1906.78 255.7 1900.87 252.385C1904.98 267.087 1905.05 280.348 1913.55 292.239C1914.77 288.131 1915.57 285.465 1916.36 282.726C1917.3 282.654 1918.3 282.582 1919.24 282.51C1914.27 303.914 1927.38 318.688 1936.67 335.048L1936.74 334.976Z" fill="#74855D"/>
<path d="M0 922.625H74.0469C74.0469 926.733 74.0469 930.12 74.0469 933.435C74.0469 1017.68 74.0469 1102 74.0469 1186.25C74.0469 1189.71 74.0469 1193.17 74.191 1196.63C75.1274 1216.31 84.1311 1226.4 103.507 1230.14C105.956 1230.65 108.117 1232.52 110.422 1233.82C110.062 1234.9 109.702 1235.98 109.27 1237.06H0V1230.14C23.4098 1230.5 36.2311 1217.89 36.3032 1194.04C36.3032 1119.44 36.3032 1044.85 36.3032 970.335C36.3032 942.3 29.9645 934.444 2.44902 928.607C1.58466 928.463 0.792331 928.102 0 927.814C0 926.084 0 924.355 0 922.625Z" fill="#74855D"/>
<path d="M2725.76 922.265C2762.43 890.915 2814.07 897.834 2840.15 937.616C2849.15 951.381 2852.75 966.011 2844.83 981.65C2840.65 989.866 2834.17 995.487 2824.37 994.911C2814.65 994.334 2808.24 988.425 2805.71 979.416C2802.83 968.894 2801.25 958.084 2799.09 947.417C2798.51 944.607 2798.01 941.796 2797.36 938.985C2794.41 926.589 2789.22 915.635 2775.17 913.257C2760.48 910.806 2749.32 917.941 2738.87 928.535C2771.07 948.931 2788.14 978.479 2794.26 1014.15C2802.55 1062.58 2796.78 1108.64 2762.86 1147.05C2723.24 1191.87 2653.37 1190.94 2614.12 1145.82C2612.46 1143.95 2610.73 1142.08 2609.07 1140.27C2593.01 1149.64 2584.22 1169.03 2588.33 1186.11C2591.35 1198.94 2600.36 1207.3 2612.67 1208.88C2625.21 1210.54 2638.53 1210.54 2650.92 1208.09C2676.85 1203.05 2702.06 1194.25 2728.07 1190C2757.74 1185.17 2786.48 1190.22 2809.24 1212.13C2841.3 1242.9 2836.04 1295.29 2798.66 1321.89C2777.77 1336.73 2753.85 1342.43 2728.79 1344.01C2677.29 1347.26 2631.33 1331.04 2588.76 1303.44C2587.82 1302.86 2587.1 1302 2585.52 1300.63C2595.39 1288.16 2605.11 1275.91 2615.41 1262.93C2619.52 1265.96 2622.97 1268.41 2626.22 1271.01C2667.13 1303.58 2713.37 1318.14 2765.59 1311.29C2775.03 1310.07 2784.61 1306.39 2793.11 1301.92C2812.63 1291.69 2821.35 1272.81 2816.74 1253.93C2812.27 1235.55 2796.14 1222.65 2773.66 1224.16C2755.01 1225.39 2736.49 1230.79 2718.13 1234.97C2694.64 1240.31 2671.45 1247.37 2647.83 1251.62C2632.12 1254.43 2616.28 1250.47 2601.8 1243.33C2559.3 1222.43 2555.12 1165.28 2593.95 1136.02C2596.47 1134.15 2599.06 1132.35 2600.21 1131.55C2594.52 1113.39 2587.25 1096.31 2584.08 1078.44C2576.44 1035.34 2581.7 993.83 2608.21 957.435C2634.36 921.473 2676.35 908.14 2719.35 920.608C2721.51 921.256 2723.74 921.761 2725.83 922.337L2725.76 922.265ZM2624.27 1051.99C2625.21 1060.93 2625.86 1074.47 2628.09 1087.74C2631.91 1110.37 2638.89 1131.91 2654.31 1149.71C2673.61 1171.98 2702.21 1173.21 2722.16 1151.59C2729.44 1143.73 2735.56 1134.15 2739.81 1124.27C2755.44 1087.81 2756.81 1049.54 2751.19 1010.77C2747.88 987.992 2741.25 966.372 2726.48 948.21C2705.31 922.193 2672.68 922.337 2652 948.715C2647.1 954.985 2642.93 962.047 2639.54 969.254C2627.94 993.974 2625.35 1020.57 2624.34 1051.99H2624.27Z" fill="#74855D"/>
<path d="M2989.82 1355.9C2985.79 1358.5 2983.7 1361.02 2981.61 1361.02C2947.11 1361.24 2912.61 1361.16 2875.3 1361.16C2878.39 1357.7 2879.69 1354.68 2881.42 1354.46C2908.93 1350.71 2918.95 1332.19 2924.06 1307.4C2947.83 1192.88 2972.39 1078.51 2996.52 964.065C2997.39 959.885 2998.4 955.056 2997.1 951.309C2995.52 946.552 2992.35 940.21 2988.46 938.985C2984.06 937.616 2976 939.561 2973.33 943.021C2966.42 951.957 2961.66 962.623 2955.75 972.425C2954.24 974.947 2951.65 976.821 2948.34 978.046C2952.44 959.957 2957.34 942.372 2970.09 928.967C2981.69 916.788 2996.81 914.482 3012.37 919.454C3026.63 923.995 3031.24 936.318 3032.39 949.939C3033.04 957.939 3032.54 965.939 3032.54 973.722C3041.04 963.849 3049.11 953.11 3058.54 943.741C3086.78 915.923 3128.55 909.004 3162.12 926.301C3190.21 940.787 3204.11 965.939 3207.64 995.631C3217.15 1076.06 3194.75 1147.05 3139.07 1206.43C3122.43 1224.16 3101.62 1235.76 3076.91 1239.51C3046.08 1244.12 3020.65 1232.16 3006.68 1204.2C3000.49 1191.73 2996.67 1178.11 2991.63 1164.7C2990.54 1169.53 2989.25 1174.94 2988.1 1180.34C2978.52 1225.89 2968.72 1271.44 2959.43 1317.06C2954.75 1339.98 2960.87 1348.98 2983.49 1354.17C2984.57 1354.39 2985.57 1354.75 2989.68 1355.9H2989.82ZM3166.37 1015.16C3165.43 1005.29 3164.79 994.334 3163.13 983.595C3162.19 977.109 3160.18 970.695 3157.87 964.569C3145.63 932.282 3117.61 921.544 3086.78 937.327C3070.14 945.831 3057.39 958.732 3047.95 974.443C3013.88 1031.23 3000.77 1093 3006.75 1158.72C3008.34 1175.95 3013.52 1192.6 3023.97 1206.94C3041.18 1230.5 3069.06 1234.83 3090.52 1215.22C3102.62 1204.2 3113.79 1190.94 3121.93 1176.74C3150.45 1127.23 3163.13 1072.96 3166.37 1015.16Z" fill="#74855D"/>
<path d="M306.272 957.65C306.272 951.453 306.272 945.182 306.272 938.985C306.272 908.716 306.272 878.519 306.272 848.25C306.272 826.053 297.917 816.107 276.452 811.783C274.147 811.279 272.058 809.405 269.897 808.18C270.257 807.315 270.545 806.45 270.905 805.657H343.944C343.944 808.828 343.944 812.216 343.944 815.531C343.944 939.345 343.944 1063.16 343.944 1186.97C343.944 1189.57 343.944 1192.16 343.944 1194.76C344.664 1216.09 353.452 1226.25 374.196 1230.36C376.501 1230.79 378.446 1233.03 380.535 1234.47C380.103 1235.19 379.671 1235.91 379.238 1236.7H306.128V1180.42C298.493 1191.73 292.154 1203.12 284.015 1212.85C249.08 1254.43 199.235 1243.19 168.839 1221.64C146.869 1206.14 132.824 1184.52 124.396 1159.44C106.461 1106.18 105.668 1052.49 124.756 999.522C138.514 961.254 163.652 933.075 204.421 922.12C244.758 911.31 281.206 918.445 306.272 957.722V957.65ZM307.929 1066.98L306.272 1066.83C306.272 1050.98 306.488 1035.2 306.272 1019.34C305.84 996.496 300.654 974.875 287.184 955.921C268.24 929.183 235.611 922.697 207.951 940.282C193.401 949.507 183.677 962.983 176.546 978.406C164.517 1004.42 159.979 1032.1 158.538 1060.42C156.666 1098.91 158.538 1137.17 173.16 1173.28C178.779 1187.12 186.99 1200.74 197.146 1211.62C217.603 1233.46 245.983 1232.88 267.808 1212.41C287.472 1193.89 298.349 1170.25 302.166 1144.31C305.912 1118.8 306.128 1092.85 307.929 1067.05V1066.98Z" fill="#74855D"/>
<path d="M583.083 805.297H655.474V969.037C655.978 969.181 656.482 969.253 657.058 969.398C659.723 964.785 662.244 960.101 665.126 955.633C679.892 932.282 699.628 918.157 728.656 920.751C756.892 923.274 776.124 938.264 788.153 963.2C800.038 987.847 803.207 1014.44 803.423 1041.32C803.928 1089.97 803.567 1138.69 803.567 1187.33C803.567 1190.5 803.568 1193.68 803.712 1196.85C804.648 1216.52 813.724 1226.61 833.172 1230.36C835.549 1230.79 837.71 1232.81 839.943 1234.11C839.583 1234.97 839.15 1235.84 838.79 1236.7H730.313C729.881 1235.98 729.449 1235.26 729.016 1234.54C730.961 1233.17 732.762 1231.01 734.923 1230.58C757.684 1225.75 765.752 1216.09 765.752 1193.1C765.752 1140.13 766.472 1087.09 765.031 1034.19C764.455 1013.14 759.269 992.171 755.091 971.416C753.651 964.353 749.761 957.434 745.727 951.236C731.898 929.976 708.272 927.237 689.544 944.462C671.032 961.47 663.109 983.883 658.859 1007.74C656.626 1020.42 655.618 1033.47 655.546 1046.37C655.186 1093.57 655.402 1140.85 655.402 1188.05C655.402 1192.09 655.546 1196.13 656.05 1200.09C658.427 1218.32 666.782 1226.83 685.006 1230.43C687.527 1230.94 689.688 1233.1 691.993 1234.47C691.561 1235.26 691.129 1236.12 690.696 1236.92H582.867C582.363 1236.27 581.931 1235.55 581.427 1234.9C583.228 1233.46 584.812 1231.08 586.829 1230.65C610.239 1225.31 617.802 1216.31 617.802 1192.38C617.802 1078.37 617.73 964.281 617.946 850.268C617.946 827.782 608.294 814.161 587.117 811.783C585.1 811.567 583.372 809.044 581.499 807.531C581.931 806.81 582.435 806.162 582.867 805.441L583.083 805.297Z" fill="#74855D"/>
<path d="M2304.89 922.769H2376.85V968.677C2377.35 968.893 2377.86 969.11 2378.43 969.326C2379.51 967.74 2380.59 966.083 2381.75 964.497C2388.09 955.633 2393.27 945.615 2400.91 938.12C2430.08 909.725 2478.7 915.851 2502.47 950.372C2516.59 970.911 2522.93 994.478 2523.57 1018.76C2525.01 1073.68 2524.8 1128.74 2525.3 1183.66C2525.3 1187.98 2525.23 1192.31 2525.45 1196.63C2526.38 1216.31 2535.53 1226.47 2554.91 1230.14C2557.36 1230.58 2559.44 1232.59 2561.75 1233.89C2561.39 1234.76 2560.96 1235.62 2560.6 1236.49H2452.12C2451.69 1235.76 2451.26 1235.04 2450.82 1234.25C2452.77 1232.88 2454.64 1230.72 2456.8 1230.29C2479.49 1225.46 2487.63 1215.8 2487.63 1192.74C2487.63 1139.77 2488.35 1086.73 2486.91 1033.83C2486.33 1013.07 2480.86 992.46 2477.4 971.776C2476.83 968.461 2475.24 965.218 2473.87 962.119C2457.81 926.157 2424.6 922.769 2401.56 954.912C2383.62 979.992 2377.79 1009.04 2377.43 1039.09C2376.78 1089.75 2377.21 1140.42 2377.28 1191.15C2377.28 1215.37 2385.49 1225.31 2408.54 1230.29C2410.63 1230.72 2412.22 1233.1 2414.09 1234.54C2413.66 1235.19 2413.15 1235.91 2412.72 1236.56H2304.89C2304.39 1235.91 2303.95 1235.26 2303.45 1234.54C2305.25 1233.03 2306.84 1230.72 2308.85 1230.21C2332.19 1224.88 2339.83 1215.73 2339.83 1191.95C2339.83 1117.07 2339.68 1042.19 2339.9 967.308C2339.97 943.453 2329.09 931.057 2309.07 928.823C2307.05 928.607 2305.32 926.084 2303.52 924.571C2303.95 923.85 2304.46 923.202 2304.89 922.481V922.769Z" fill="#74855D"/>
<path d="M2061.28 1234.54C2063.23 1233.1 2064.96 1230.86 2067.05 1230.36C2088.58 1225.67 2097.44 1217.1 2097.44 1195.12C2097.3 1132.99 2096.94 1070.8 2094.63 1008.75C2093.99 991.451 2088.22 973.506 2081.02 957.579C2067.62 927.598 2037.23 924.643 2015.76 949.795C2000.49 967.668 1993.36 989.145 1989.9 1011.92C1988.39 1022.08 1987.89 1032.53 1987.81 1042.84C1987.6 1092.64 1987.74 1142.44 1987.74 1192.23C1987.74 1216.23 1995.31 1225.39 2018.57 1230.43C2020.59 1230.86 2022.17 1233.17 2023.97 1234.54C2023.54 1235.26 2023.04 1235.98 2022.6 1236.7H1914.92L1913.41 1234.83C1915.14 1233.31 1916.65 1230.94 1918.67 1230.43C1942.29 1224.95 1950 1215.73 1950 1191.44C1950 1116.92 1950 1042.33 1950 967.812C1950 943.886 1942.29 934.445 1919.39 929.112C1917.15 928.607 1915.35 926.445 1913.33 925.076C1913.77 924.283 1914.13 923.562 1914.56 922.769H1987.45V967.74C1987.96 967.957 1988.46 968.101 1988.97 968.317C1990.05 966.659 1991.2 965.002 1992.28 963.344C1995.16 958.732 1997.83 953.903 2000.92 949.435C2031.9 904.248 2091.97 916.211 2114.23 952.822C2129.71 978.335 2134.47 1006.51 2134.83 1035.49C2135.48 1087.3 2135.4 1139.12 2135.19 1190.94C2135.12 1213.71 2144.05 1227.84 2166.88 1230.5C2168.75 1230.72 2170.34 1233.17 2172.07 1234.61C2171.71 1235.26 2171.27 1235.91 2170.91 1236.56H2062.58C2062.15 1235.91 2061.72 1235.19 2061.28 1234.54Z" fill="#74855D"/>
<path d="M3635.65 1073.97C3635.07 1115.99 3629.24 1152.38 3610.94 1185.82C3597.4 1210.61 3578.81 1230.21 3550.87 1238.5C3516.15 1248.74 3480.49 1235.91 3456 1204.85C3436.77 1180.49 3426.69 1152.16 3422.08 1121.97C3414.87 1074.47 3416.89 1027.56 3437.42 983.379C3444.41 968.317 3454.2 953.326 3466.09 941.867C3507 902.302 3564.91 908.5 3599.92 954.624C3620.52 981.794 3629.74 1013.36 3633.63 1046.66C3634.85 1057.18 3635.21 1067.84 3635.65 1074.04V1073.97ZM3592.5 1065.75C3590.63 1052.2 3588.18 1026.12 3583.28 1000.53C3578.96 978.118 3570.75 956.786 3553.6 940.354C3538.19 925.58 3518.02 924.643 3502.53 939.129C3495.55 945.687 3489.57 953.831 3484.96 962.263C3470.7 988.496 3465.65 1017.47 3463.49 1046.8C3460.25 1090.4 3462.27 1133.57 3476.39 1175.44C3481.86 1191.66 3489.14 1206.94 3502.32 1218.54C3517.66 1232.02 3535.96 1233.1 3550.51 1219.04C3559.73 1210.11 3567.51 1198.65 3572.84 1186.9C3588.54 1152.52 3591.13 1115.41 3592.43 1065.61L3592.5 1065.75Z" fill="#74855D"/>
<path d="M1048.47 1072.53C1047.89 1117.64 1041.63 1155.7 1021.39 1190.15C1009.72 1209.89 994.447 1226.11 972.838 1235.19C939.632 1249.24 901.24 1240.23 875.814 1212.77C851.035 1185.89 839.439 1153.17 834.396 1117.79C828.13 1074.11 830.795 1031.09 847.218 989.65C854.781 970.479 865.585 953.255 881.144 939.274C918.456 905.834 971.974 908.572 1005.54 945.832C1029.81 972.713 1040.83 1005.36 1045.73 1040.46C1047.46 1053 1047.89 1065.68 1048.47 1072.53ZM1006.62 1078.01C1003.52 1053.5 1001.43 1028.86 997.112 1004.64C993.079 982.226 985.443 960.606 969.453 943.381C950.797 923.346 926.019 923.49 909.38 945.255C900.664 956.642 893.245 970.047 888.851 983.668C870.916 1039.09 871.132 1095.66 882.801 1152.31C887.267 1174.15 894.542 1194.97 909.092 1212.49C926.739 1233.67 951.013 1234.68 969.021 1213.86C976.44 1205.35 982.346 1195.05 986.812 1184.6C1001.15 1150.65 1004.39 1114.62 1006.62 1077.93V1078.01Z" fill="#74855D"/>
<path d="M3740.81 1242.97C3707.46 1240.16 3678.79 1226.11 3657.04 1199.15C3647.46 1187.26 3641.26 1173.79 3642.06 1157.93C3642.42 1150.22 3644.58 1143.59 3652.14 1140.27C3659.99 1136.81 3667.63 1139.12 3672.45 1145.32C3679.94 1155.05 3685.92 1165.86 3692.62 1176.24C3702.06 1190.94 3709.98 1206.87 3721.36 1219.91C3734.4 1234.9 3755.72 1233.67 3769.84 1219.62C3784.75 1204.78 3787.99 1186.76 3782.95 1167.01C3776.75 1142.87 3760.33 1125.28 3743.83 1107.99C3724.96 1088.24 3704.72 1069.57 3687.15 1048.75C3676.77 1036.49 3667.99 1021.79 3662.44 1006.73C3649.98 972.713 3665.9 938.841 3698.96 923.779C3734.11 907.779 3777.18 915.923 3803.19 943.598C3813.78 954.84 3819.97 968.245 3821.2 983.74C3822.06 994.839 3817.52 1004.42 3810.03 1006.95C3801.39 1009.83 3792.45 1005.79 3786.84 994.983C3782.51 986.623 3779.56 977.542 3775.89 968.75C3773.15 962.119 3770.77 955.273 3767.32 949.003C3758.46 932.787 3746.21 926.445 3730.73 929.472C3716.9 932.139 3705.23 945.255 3702.92 961.182C3700.04 980.713 3705.59 998.658 3716.54 1014.22C3727.27 1029.43 3739.51 1043.63 3752.05 1057.47C3770.05 1077.29 3790.01 1095.37 3806.86 1116.06C3816.59 1127.95 3824.08 1142.72 3828.83 1157.43C3837.4 1183.8 3827.97 1206.14 3806.57 1223.15C3787.7 1238.14 3765.66 1243.4 3740.81 1242.83V1242.97Z" fill="#74855D"/>
<path d="M1516.23 1090.55C1512.06 1123.55 1512.56 1155.19 1526.39 1185.32C1540.36 1215.87 1566.37 1232.02 1596.11 1228.2C1618.73 1225.31 1636.02 1212.56 1650.71 1196.13C1657.77 1188.27 1663.46 1179.12 1670.02 1170.76C1671.75 1168.52 1674.34 1166.94 1677.15 1165.86C1643.44 1241.6 1569.39 1255.87 1520.27 1230.58C1490.88 1215.44 1474.24 1189.57 1470.21 1158.07C1459.47 1073.75 1483.39 1000.75 1549.08 944.678C1579.48 918.805 1616.07 908.716 1655.68 919.022C1715.68 934.516 1719.86 995.126 1691.91 1029.14C1674.92 1049.9 1652.37 1062.15 1627.74 1071.16C1594.67 1083.19 1560.32 1088.09 1525.45 1089.9C1522.64 1090.04 1519.76 1090.26 1516.16 1090.47L1516.23 1090.55ZM1518.68 1078.29C1563.7 1078.87 1605.62 1073.1 1638.76 1040.96C1661.45 1018.98 1669.87 991.09 1666.49 959.885C1664.62 942.156 1653.31 931.489 1635.66 929.183C1615.27 926.517 1598.28 934.156 1583.73 947.489C1545.48 982.37 1530.57 1028.78 1518.68 1078.29Z" fill="#74855D"/>
<path d="M582.003 1213.71C575.304 1233.75 564.716 1241.24 544.259 1240.52C522.362 1239.73 510.333 1229.78 503.922 1206.58C502.77 1207.51 501.473 1208.09 500.825 1209.1C485.339 1232.23 463.297 1240.74 436.502 1236.48C407.546 1231.87 386.153 1216.52 377.149 1187.84C367.209 1156.2 375.349 1128.02 400.055 1106.47C415.974 1092.56 434.701 1081.97 452.205 1069.79C463.081 1062.22 474.39 1055.3 484.69 1047.02C498.016 1036.28 505.219 1022.22 502.842 1004.57C500.825 989.505 498.664 974.443 495.999 959.452C495.279 955.344 493.046 951.381 490.957 947.633C480.224 928.679 459.48 927.67 448.243 946.264C442.12 956.497 438.735 968.317 433.981 979.415C430.884 986.478 427.931 993.685 424.257 1000.46C420.584 1007.09 414.173 1008.6 407.042 1007.23C400.271 1005.86 396.742 1001.25 395.517 994.766C391.339 973.362 400.127 956.353 414.677 942.012C435.278 921.688 460.416 915.923 488.004 923.202C518.256 931.129 532.014 953.903 537.488 982.586C539.721 994.406 540.73 1006.59 540.802 1018.62C541.09 1079.37 540.874 1140.13 541.09 1200.88C541.09 1206.58 541.882 1212.41 543.611 1217.82C545.844 1224.81 551.102 1229.35 558.809 1230.14C566.3 1230.86 570.334 1226.11 573.863 1220.56C575.736 1217.6 577.753 1214.79 579.698 1211.98C580.562 1212.63 581.355 1213.21 582.219 1213.86L582.003 1213.71ZM501.401 1049.39C488.796 1059.48 475.326 1070.22 461.857 1080.96C440.608 1097.9 424.185 1118.08 419.071 1145.68C415.181 1166.58 415.325 1187.05 427.138 1205.78C442.697 1230.36 472.301 1231.37 488.148 1206.86C494.558 1196.99 500.393 1184.81 500.825 1173.5C502.338 1131.91 501.401 1090.19 501.401 1049.32V1049.39Z" fill="#74855D"/>
<path d="M1910.31 1213.78C1905.63 1231.15 1896.19 1239.15 1878.83 1240.38C1854.7 1242.03 1843.61 1234.03 1831.65 1205.93C1822.43 1220.49 1810.55 1231.37 1793.69 1235.48C1763.22 1242.97 1729.23 1229.57 1713.02 1203.69C1696.31 1176.96 1698.69 1141.5 1719 1116.56C1731.75 1100.92 1748.17 1089.82 1765.17 1079.37C1777.2 1072.02 1789.16 1064.53 1801.04 1056.96C1823.59 1042.55 1836.33 1023.23 1830.86 995.415C1827.84 979.992 1824.88 964.497 1820.27 949.507C1817.32 940.066 1809.54 933.652 1798.88 933.147C1787.86 932.643 1780.15 938.913 1775.61 948.21C1770.79 957.939 1767.26 968.317 1763.08 978.406C1760.2 985.325 1757.46 992.244 1754.08 998.874C1750.11 1006.51 1743.34 1009.11 1735.13 1007.09C1727.21 1005.14 1724.33 999.018 1723.61 991.667C1721.3 968.461 1731.82 950.948 1748.96 937.039C1771.8 918.517 1797.65 915.634 1824.52 925.94C1851.82 936.39 1862.41 959.741 1866.8 986.478C1868.46 996.352 1868.96 1006.51 1868.96 1016.53C1869.18 1077.28 1868.96 1138.04 1869.18 1198.79C1869.18 1205.57 1870.62 1212.56 1872.64 1218.97C1874.8 1225.75 1880.42 1229.57 1887.76 1230C1894.75 1230.43 1898.78 1226.18 1902.03 1220.63C1903.83 1217.6 1906.06 1214.79 1908.08 1211.84C1908.8 1212.41 1909.52 1213.06 1910.24 1213.64L1910.31 1213.78ZM1831 1048.53C1819.77 1057.61 1809.04 1065.68 1799.02 1074.55C1787.43 1084.78 1774.75 1094.51 1765.53 1106.69C1744.64 1134.44 1739.17 1165.79 1752.06 1198.72C1757.82 1213.42 1768.77 1224.09 1785.7 1224.52C1802.05 1224.88 1813 1215.37 1820.49 1201.53C1827.91 1187.84 1831.44 1173.14 1831.51 1157.64C1831.65 1124.27 1831.51 1090.83 1831.51 1057.47C1831.51 1054.73 1831.22 1051.99 1831 1048.53Z" fill="#74855D"/>
<path d="M1360.36 1167.23C1346.96 1223.08 1294.16 1253.28 1236.04 1238.21C1203.69 1229.85 1178.41 1210.83 1162.57 1182.07C1125.25 1114.4 1123.96 1044.49 1160.12 976.605C1192.39 915.923 1272.27 897.545 1328.16 934.661C1345.45 946.192 1358.78 960.894 1361.58 982.659C1362.95 993.325 1358.92 1003.2 1351.64 1006.51C1343.94 1009.97 1334.14 1007.23 1327.37 998.153C1322.26 991.307 1318.37 983.523 1314.12 976.028C1308.93 966.803 1304.61 956.93 1298.7 948.138C1287.03 930.841 1270.83 925.436 1250.51 930.697C1230.56 935.886 1216.95 949.002 1206.72 966.083C1194.47 986.406 1188.28 1008.82 1185.18 1032.03C1179.78 1072.38 1180.07 1112.45 1194.76 1151.23C1203.91 1175.3 1216.95 1196.78 1237.91 1212.49C1273.56 1239.37 1312.89 1233.39 1338.53 1196.85C1344.08 1188.92 1347.75 1179.69 1352.65 1171.26C1354.02 1168.88 1356.47 1167.15 1358.42 1165.14C1359.14 1165.86 1359.86 1166.51 1360.58 1167.23H1360.36Z" fill="#74855D"/>
<path d="M3318.93 1236.77H3212.11C3211.6 1236.12 3211.03 1235.48 3210.52 1234.83C3212.25 1233.31 3213.84 1230.72 3215.78 1230.43C3238.11 1227.55 3246.76 1213.06 3246.68 1192.02C3246.4 1116.85 3246.54 1041.76 3246.54 966.587C3246.54 943.814 3238.62 934.084 3216.72 929.184C3214.49 928.679 3212.54 926.589 3210.45 925.22C3210.81 924.427 3211.24 923.634 3211.6 922.842H3284V958.948C3285.87 957.363 3286.66 957.002 3286.95 956.426C3304.02 923.13 3333.05 914.482 3370.65 923.706C3385.49 927.382 3398.38 934.733 3408.39 946.624C3417.03 957.002 3420.35 968.894 3417.39 982.082C3415.38 991.091 3410.26 997.793 3400.4 999.379C3391.39 1000.82 3384.33 997.217 3379.79 989.866C3375.11 982.37 3371.66 974.083 3367.69 966.155C3364.67 959.957 3362.22 953.471 3358.55 947.633C3348.25 931.057 3331.32 928.247 3315.76 940.138C3305.53 947.922 3299.63 958.804 3295.3 970.551C3286.73 993.829 3284.43 1018.12 3284.36 1042.69C3284.21 1092.2 3284.21 1141.71 3284.36 1191.23C3284.36 1216.02 3291.56 1224.67 3315.4 1230.36C3317.42 1230.86 3318.93 1233.03 3320.73 1234.47C3320.15 1235.19 3319.58 1235.98 3319 1236.7L3318.93 1236.77Z" fill="#74855D"/>
<path d="M1358.99 805.225H1431.09V816.18C1431.09 939.418 1431.09 1062.66 1431.09 1185.89C1431.09 1189.64 1431.09 1193.39 1431.31 1197.14C1432.39 1216.38 1441.39 1226.47 1460.27 1230.22C1462.79 1230.72 1464.95 1232.88 1467.25 1234.25C1466.82 1235.04 1466.39 1235.91 1465.88 1236.7H1358.99C1358.42 1236.13 1357.84 1235.55 1357.26 1235.04C1358.92 1233.46 1360.5 1230.72 1362.38 1230.5C1386.94 1227.4 1393.49 1210.61 1393.42 1191.3C1393.13 1077.86 1393.28 964.425 1393.28 850.917C1393.28 825.981 1386.8 817.837 1362.66 811.64C1360.65 811.135 1359.06 808.829 1357.26 807.387C1357.84 806.667 1358.42 805.946 1358.99 805.153V805.225Z" fill="#74855D"/>
<path d="M2294.73 1236.77H2184.02C2183.52 1236.2 2183.02 1235.62 2182.44 1235.04C2184.1 1233.46 2185.61 1230.79 2187.48 1230.58C2213.56 1227.19 2218.74 1209.96 2218.74 1191.59C2218.67 1117.93 2218.53 1044.21 2218.82 970.552C2218.89 947.562 2211.4 931.779 2187.27 929.112C2185.54 928.896 2184.1 926.157 2180.78 922.914H2256.2C2256.2 926.59 2256.2 929.905 2256.2 933.292C2256.2 1018.77 2256.34 1104.24 2256.13 1189.71C2256.13 1210.11 2261.67 1227.55 2288.18 1230.72C2289.91 1230.94 2291.42 1233.67 2294.73 1236.85V1236.77Z" fill="#74855D"/>
<path d="M2226 1535.93V1638.5C2216.42 1642.34 2211.21 1638.5 2206.53 1630.52C2191.95 1606.07 2176.64 1582.14 2160.39 1555.93V1639.23H2148V1536.34C2157.89 1532.93 2163.52 1536.14 2168.62 1544.74C2183.09 1569.19 2198.61 1593.02 2213.92 1617.37V1535.93H2226Z" fill="#74855D"/>
<path d="M2357.06 1554.98V1640.28C2353.01 1640.49 2349.47 1640.6 2345 1640.81V1536.68C2354.88 1532.6 2360.81 1536.16 2366.01 1545.04C2380.15 1568.98 2395.13 1592.4 2410.42 1617.18V1536.26H2423V1639.66C2413.43 1643.21 2408.23 1639.45 2403.66 1631.5C2388.78 1606.2 2373.18 1581.32 2356.96 1554.87L2357.06 1554.98Z" fill="#74855D"/>
<path d="M1118.31 1554.87V1639.9H1106V1536.46C1116.1 1532.9 1121.99 1535.94 1127.14 1544.51C1141.45 1568.57 1156.6 1592 1172.38 1617.2V1535.83H1185V1640H1171.01C1153.97 1612.28 1136.61 1584.26 1118.41 1554.76L1118.31 1554.87Z" fill="#74855D"/>
<path d="M869 1640.74V1536.13C896.244 1534.14 923.905 1528.07 944.494 1552.67C958.22 1569.11 958.532 1599.79 945.222 1618.85C925.984 1646.39 897.492 1642.52 869 1640.74ZM882.726 1630.06C903.627 1631.73 923.177 1631.42 934.095 1611.21C943.038 1594.56 943.974 1576.13 932.951 1559.9C920.785 1542.1 901.963 1543.67 882.83 1545.87V1629.95L882.726 1630.06Z" fill="#74855D"/>
<path d="M480 1535.45C494.24 1535.45 508.375 1534.2 522.196 1535.87C533.713 1537.23 541.775 1545.09 543.869 1557.24C546.278 1571.91 539.681 1582.17 529.944 1587.41C536.331 1604.91 542.404 1621.77 549 1639.9H534.341C524.29 1622.61 532.666 1588.04 493.297 1596.21V1640H480.105V1535.45H480ZM493.821 1583.64C506.804 1583.85 520.311 1586.78 527.326 1574.11C530.363 1568.77 530.363 1558.6 527.117 1553.47C519.473 1541.42 506.385 1544.57 493.821 1545.51V1583.64Z" fill="#74855D"/>
<path d="M2541.12 1627.08V1596.6C2534.59 1596.18 2528.57 1595.87 2522.66 1595.45C2521 1583.89 2525.56 1582.52 2554.92 1586.2C2554.92 1600.91 2555.23 1615.84 2554.61 1630.76C2554.51 1633.39 2550.67 1637.91 2548.39 1638.01C2533.34 1638.96 2517.68 1641.59 2503.15 1638.65C2480.53 1634.02 2468.5 1613.11 2469.02 1586.72C2469.53 1561.19 2484.99 1541.22 2508.55 1535.22C2524.21 1531.34 2538.22 1532.49 2551.39 1539.11C2550.25 1541.95 2549.11 1544.79 2547.97 1547.63C2525.25 1542.79 2503.77 1540.69 2489.46 1563.08C2479.29 1579.05 2481.88 1605.43 2493.71 1618.57C2504.29 1630.45 2524 1634.02 2541.02 1626.98L2541.12 1627.08Z" fill="#74855D"/>
<path d="M2926.26 1587.73C2930.55 1596.72 2935.05 1604.45 2938.09 1612.82C2941.13 1620.97 2942.59 1629.65 2945 1639.06H2934.22C2927.1 1624.42 2921.65 1609.79 2913.07 1597.34C2910.35 1593.37 2899.36 1594.94 2891.09 1593.79V1639.37C2886.38 1639.58 2882.61 1639.79 2878 1640V1535.45C2892.55 1535.45 2907 1534.2 2921.13 1535.87C2932.75 1537.23 2940.29 1545.91 2941.96 1557.93C2943.95 1572.04 2937.25 1581.87 2926.26 1587.83V1587.73ZM2891.4 1582.81C2904.07 1583.96 2917.26 1586.37 2924.59 1574.45C2927.94 1569.01 2928.04 1558.03 2924.59 1552.81C2916.84 1541.1 2903.86 1543.82 2891.4 1545.59V1582.71V1582.81Z" fill="#74855D"/>
<path d="M2051.01 1535.1H2067.68C2079.39 1569.79 2091.09 1604.37 2103 1639.9H2088.91C2085.39 1629.94 2081.66 1619.46 2077.73 1608.25H2040.55C2036.82 1618.94 2033.19 1629.42 2029.57 1640H2016C2027.81 1604.9 2039.3 1570.42 2051.11 1535L2051.01 1535.1ZM2074.1 1595.78C2069.03 1579.64 2064.26 1564.76 2058.98 1547.99C2053.7 1564.76 2048.94 1579.85 2043.96 1595.78H2074.1Z" fill="#74855D"/>
<path d="M1414.81 1640.37H1401C1412.93 1604.83 1424.65 1570.02 1436.47 1535H1453.32C1465.04 1569.49 1476.86 1604.19 1489 1640.16C1484.08 1640.47 1480.21 1640.68 1474.98 1641C1471.11 1629.96 1467.24 1619.13 1463.36 1608.09H1425.9C1422.14 1618.92 1418.58 1629.54 1414.81 1640.37ZM1444.63 1547.93C1439.3 1564.87 1434.48 1579.9 1429.46 1595.89H1459.91C1454.78 1579.69 1450.07 1564.87 1444.63 1547.93Z" fill="#74855D"/>
<path d="M3306.75 1580.11H3344.86C3348.22 1587.43 3347.28 1591.29 3338.46 1591.08C3328.06 1590.87 3317.67 1591.08 3306.65 1591.08V1629.13H3350.32C3350.95 1633.1 3351.37 1636.13 3352 1640H3293V1536H3348.43V1545.72H3306.75V1580.21V1580.11Z" fill="#74855D"/>
<path d="M1918 1639.9V1536H1973.99C1974.31 1538.09 1974.63 1541.13 1975.26 1545.63H1932.55V1579.63H1971.57C1971.88 1583.5 1972.2 1586.54 1972.52 1590.93H1932.45V1629.01H1976.52C1977.05 1632.99 1977.47 1636.13 1978 1640H1918.11L1918 1639.9Z" fill="#74855D"/>
<path d="M1001.1 1535H1056.54C1056.75 1537.94 1057.07 1540.99 1057.38 1545.4H1015.04V1579.1H1054.13C1054.34 1583.41 1054.45 1586.45 1054.66 1590.44H1015.36V1628.56H1058.85C1059.27 1633.07 1059.58 1636.22 1060 1640H1001V1535H1001.1Z" fill="#74855D"/>
<path d="M652 1639.9H593V1536H648.542C648.751 1538.6 648.961 1541.52 649.275 1545.99H606.938V1579.52H646.027V1590.76H607.252V1628.55H650.952C651.371 1633.02 651.581 1636.15 652 1640V1639.9Z" fill="#74855D"/>
<path d="M3029.65 1640H3014.46C3003.31 1605.32 2992.36 1570.96 2981 1535.65H2995.46C3004.13 1563.75 3012.91 1592.27 3022.42 1622.97C3024.17 1618.69 3025.41 1615.98 3026.34 1613.26C3033.98 1590.39 3041.83 1567.51 3048.86 1544.43C3051.54 1535.76 3055.98 1533.04 3066 1536.39C3053.81 1571.17 3041.63 1605.74 3029.65 1640Z" fill="#74855D"/>
<path d="M2786.01 1545.81V1578.77C2799.53 1579.81 2812.43 1580.85 2825.33 1582.21C2825.75 1582.21 2825.65 1586.7 2825.86 1590.45H2786.32V1629.15C2798.49 1629.15 2810.35 1629.36 2822.21 1629.15C2830.33 1628.94 2832.72 1631.97 2829.81 1640H2773V1536H2827.31C2829.7 1542.15 2829.18 1546.12 2820.86 1545.91C2809.73 1545.7 2798.49 1545.91 2785.9 1545.91L2786.01 1545.81Z" fill="#74855D"/>
<path d="M2660 1638.45C2662.72 1631.34 2663.87 1628.31 2664.81 1626.12C2673.81 1627.79 2681.86 1630.19 2690.02 1630.51C2699.33 1630.93 2707.49 1627.48 2710.21 1617.24C2713.03 1606.59 2707.8 1599.59 2698.49 1595.1C2692.53 1592.18 2686.15 1589.88 2680.29 1586.75C2669.21 1580.79 2662.2 1572.02 2663.87 1558.54C2665.44 1545.91 2673.28 1537.03 2687.51 1534.63C2695.46 1533.27 2704.04 1534.42 2712.2 1535.25C2720.78 1536.09 2721.51 1540.89 2716.7 1547.58C2710 1546.53 2703.1 1544.86 2696.19 1544.65C2687.72 1544.44 2680.19 1547.58 2677.78 1556.56C2675.38 1565.65 2680.29 1571.81 2687.93 1575.78C2693.89 1578.81 2700.17 1581.21 2706.13 1584.24C2720.46 1591.55 2726.84 1602.93 2724.54 1616.51C2722.24 1629.99 2712.3 1639.8 2696.61 1640.85C2685.42 1641.58 2673.91 1639.49 2660 1638.45Z" fill="#74855D"/>
<path d="M747.68 1546.43C738.348 1545.8 729.949 1543.7 722.173 1545.07C717.196 1546.01 710.249 1551.57 709.419 1555.97C708.382 1561.21 711.7 1568.97 715.744 1572.96C720.514 1577.67 727.979 1579.56 734.304 1582.6C750.376 1590.36 756.908 1601.16 754.523 1616.05C752.242 1630.62 742.288 1639.85 724.765 1640.9C714.396 1641.53 703.924 1639.01 692 1637.76C693.659 1631.78 694.592 1628.42 695.214 1626.22C705.168 1627.69 714.085 1630 723.002 1630.1C731.919 1630.1 739.074 1625.38 741.148 1615.84C743.118 1606.3 738.452 1599.59 730.364 1595.39C724.454 1592.35 718.233 1590.15 712.323 1587.11C699.051 1580.19 692.622 1569.08 694.696 1557.02C696.77 1544.65 706.101 1535.31 720.41 1533.32C727.565 1532.38 735.134 1533.74 742.495 1534.47C750.79 1535.31 751.724 1539.93 747.887 1546.32L747.68 1546.43Z" fill="#74855D"/>
<path d="M3245.69 1544.48C3222.85 1542.17 3203.02 1540.07 3189.52 1559.16C3178.3 1575 3177.58 1593.35 3186.51 1610.34C3199.17 1634.25 3221.19 1632.05 3243.61 1626.91C3244.44 1627.96 3245.17 1629.11 3246 1630.16C3243.82 1633.1 3242.26 1637.51 3239.36 1638.66C3217.76 1646.94 3189.52 1639.18 3177.16 1622.4C3163.66 1603.94 3163.56 1573.21 3177.16 1553.92C3189.83 1535.88 3217.86 1526.96 3239.56 1534.93C3242.37 1535.98 3243.72 1541.23 3245.69 1544.48Z" fill="#74855D"/>
<path d="M1766.29 1627.67C1771.45 1634.55 1768.77 1637.46 1762.16 1639.44C1739.77 1646.22 1713.45 1639.13 1701.27 1622.88C1687.75 1604.64 1687.54 1574.01 1700.86 1554.84C1713.24 1536.92 1738.53 1528.79 1761.75 1535.14C1767.19 1536.67 1768.67 1540.81 1766.19 1547.54C1746.37 1542.85 1726.25 1540.88 1712.93 1560.67C1702.2 1576.61 1701.68 1594.74 1710.97 1611.52C1723.77 1634.65 1745.34 1631.84 1766.29 1627.67Z" fill="#74855D"/>
<path d="M1817 1640V1535.73C1820.94 1535.52 1824.57 1535.31 1829.54 1535V1628.84H1874V1640H1817Z" fill="#74855D"/>
<path d="M1257.74 1546.28H1226V1535H1302.48C1302.58 1538.24 1302.79 1541.58 1303 1546.39H1271.15V1639.27C1266.44 1639.58 1262.88 1639.69 1257.74 1640V1546.28Z" fill="#74855D"/>
<path d="M1591 1628.71V1640H1534V1536H1546.45V1628.82H1591V1628.71Z" fill="#74855D"/>
<path d="M803 1535H816V1640.05C811.992 1640.37 807.983 1640.58 803 1641V1535.11V1535Z" fill="#74855D"/>
<path d="M1356 1640H1344V1535H1356V1640Z" fill="#74855D"/>
<path d="M2279 1535H2291V1639.37C2287 1639.58 2283.41 1639.79 2279 1640V1535Z" fill="#74855D"/>
<path d="M3120 1640H3108V1535.52C3111.5 1535.31 3115.33 1535.21 3120 1535V1640Z" fill="#74855D"/>
<path d="M1888 861.367C1887.93 845.512 1900.32 833.116 1916.38 833.116C1931.87 833.116 1944.26 845.368 1944.4 860.863C1944.62 876.718 1932.08 889.762 1916.52 889.762C1901.04 889.762 1888.07 876.934 1888 861.295V861.367Z" fill="#74855D"/>
<path d="M74.3352 861.511C74.1911 877.655 61.6579 890.195 45.9554 889.762C30.613 889.402 17.3594 875.781 17.7196 860.718C18.0797 845.296 31.4773 832.756 47.1078 833.116C62.7384 833.476 74.4793 845.728 74.3352 861.511Z" fill="#74855D"/>
<path d="M1938.88 220.386C1922.17 221.251 1907.41 222.044 1893 222.837C1894.22 216.494 1922.96 213.323 1938.88 220.386Z" fill="#74855D"/>
<path d="M1901.04 297.284C1900.03 287.482 1920.27 267.807 1930.28 269.321C1920.77 278.402 1910.76 287.915 1901.04 297.284Z" fill="#74855D"/>
<path d="M1923.22 282.51C1918.61 290.581 1914.07 298.365 1909.61 306.148C1906.73 296.851 1914.58 283.447 1923.22 282.51Z" fill="#74855D"/>
<path d="M1924.22 239.341L1907.5 241.359C1907.36 240.35 1907.14 239.269 1907 238.26L1923.78 235.737C1923.93 236.962 1924.14 238.116 1924.29 239.341H1924.22Z" fill="#74855D"/>
<path d="M1924.57 229.539C1919.24 230.259 1913.83 230.908 1908.5 231.629C1908.36 230.62 1908.14 229.539 1908 228.53C1913.33 227.665 1918.73 226.728 1924.06 225.863C1924.21 227.088 1924.42 228.314 1924.57 229.539Z" fill="#74855D"/>
<path d="M1920.52 457.421C1916.71 455.764 1912.82 454.106 1909 452.376L1910.3 449.277C1914.26 450.863 1918.22 452.52 1922.18 454.106C1921.68 455.187 1921.1 456.268 1920.6 457.421H1920.52Z" fill="#74855D"/>
<path d="M1922.25 463.474C1918.14 462.898 1914.11 462.321 1910 461.673C1910.14 460.592 1910.29 459.511 1910.43 458.357C1914.54 458.934 1918.57 459.511 1922.68 460.087C1922.53 461.168 1922.39 462.321 1922.25 463.402V463.474Z" fill="#74855D"/>
<path d="M1927.5 382.109C1919.36 376.415 1911.29 370.794 1902 364.308C1902.58 364.092 1905.6 361.857 1906.68 362.578C1914.61 367.767 1922.17 373.533 1929.8 379.154C1929.01 380.163 1928.29 381.172 1927.5 382.181V382.109Z" fill="#74855D"/>
<path d="M1908 573.02C1912.11 569.849 1914.19 568.119 1917.08 565.885C1919.02 567.975 1921.47 570.713 1923.99 573.452C1923.7 574.101 1923.41 574.749 1923.13 575.398C1918.73 574.749 1914.34 574.029 1908 573.092V573.02Z" fill="#74855D"/>
<path d="M1922.1 546.93C1915.69 542.318 1908.27 517.959 1909.06 508.446C1909.78 508.229 1910.5 508.013 1911.22 507.869C1914.68 520.337 1918.13 532.877 1922.1 546.93Z" fill="#74855D"/>
<path d="M1917.91 532.3C1915.61 524.445 1913.3 516.661 1911 508.806C1912.15 508.445 1913.38 508.085 1914.53 507.797C1916.98 515.58 1919.36 523.436 1921.8 531.219C1920.51 531.58 1919.28 531.94 1917.99 532.3H1917.91Z" fill="#74855D"/>
<path d="M1916.55 502.464C1914.67 495.329 1912.87 488.266 1911 481.131C1912.08 480.843 1913.23 480.483 1914.31 480.194C1916.26 487.257 1918.2 494.32 1920.15 501.383C1918.92 501.743 1917.7 502.103 1916.47 502.464H1916.55Z" fill="#74855D"/>
<path d="M1914.87 490.789C1914.22 486.32 1913.65 481.924 1913 477.456L1916.1 477.023C1916.75 481.492 1917.39 485.888 1918.11 490.356L1914.87 490.789Z" fill="#74855D"/>
<path d="M1890 305.788C1897.2 298.365 1930.12 297.14 1942.15 305.788H1890Z" fill="#74855D"/>
<path d="M1931.55 313.5C1921.03 314.148 1910.44 314.797 1900 315.518C1903.89 309.32 1921.61 307.374 1931.55 313.5Z" fill="#74855D"/>
<path d="M1923.91 322.076L1909.65 324.886C1909.43 323.733 1909.22 322.652 1909 321.499C1913.75 320.634 1918.58 319.769 1923.33 318.977L1923.91 322.076Z" fill="#74855D"/>
<path d="M1910 368.127C1912.81 362.434 1915.55 356.813 1918.36 351.119C1919.58 351.768 1920.73 352.344 1921.96 352.993C1919 358.542 1915.98 364.092 1913.03 369.641C1912.02 369.136 1911.01 368.632 1910 368.127Z" fill="#74855D"/>
<path d="M1918.83 556.372C1917.25 555.507 1914.22 554.714 1914.22 553.777C1913.94 538.931 1914.01 524.085 1914.01 509.239C1915.02 509.239 1915.95 509.167 1916.96 509.095C1917.47 524.95 1918.04 540.733 1918.55 556.588L1918.83 556.3V556.372Z" fill="#74855D"/>
</svg>
