<svg width="224" height="16" viewBox="0 0 224 16" fill="none" xmlns="http://www.w3.org/2000/svg">
<path d="M221.927 5.41861C202.771 4.41501 183.58 3.61806 164.339 3.82468C143.625 4.06082 122.944 5.44814 102.348 7.3225C86.3754 8.79838 70.4539 10.4956 54.5326 12.2962L55.1085 15.9121C92.8625 10.7317 130.82 5.84661 169.116 5.09392C179.956 4.88729 190.796 5.00534 201.636 5.53666V1.84697C149.485 0.238262 97.1984 -1.38521 45.0983 1.93552C30.5319 2.8604 16.0108 4.2084 1.53473 5.97945C-1.15835 6.3189 -0.00662432 9.87574 2.66952 9.55105C53.9059 3.21954 105.837 3.07198 157.48 4.2822C172.198 4.63641 186.917 5.07914 201.636 5.53666C204.363 5.62521 204.346 1.9798 201.636 1.84697C163.018 -0.0421551 124.417 3.32286 86.2229 8.08994C75.4675 9.43299 64.7121 10.8794 54.0414 12.3553C51.7209 12.6799 52.246 16.2516 54.6004 15.9859C80.227 13.0341 105.921 10.3333 131.7 8.73934C150.512 7.58815 169.364 7.24376 188.255 7.7062C199.502 7.98662 210.731 8.51794 221.961 9.18208C224.688 9.32967 224.671 5.63997 221.961 5.49239L221.927 5.41861Z" fill="#FFE888"/>
</svg>
